<?xml version="1.0" encoding="utf-8"?>
<!-- Generator: Adobe Illustrator 19.0.0, SVG Export Plug-In . SVG Version: 6.00 Build 0)  -->
<svg version="1.1" xmlns="http://www.w3.org/2000/svg" xmlns:xlink="http://www.w3.org/1999/xlink" x="0px" y="0px"
	 viewBox="0 0 912.7 156.7" style="enable-background:new 0 0 912.7 156.7;" xml:space="preserve">
<style type="text/css">
	.st0{display:none;}
	.st1{fill-rule:evenodd;clip-rule:evenodd;fill:#B20933;stroke:#FFFFFF;stroke-width:1;stroke-alignment:center;}
	.st2{fill:none;}
	.st3{fill:#B20933;stroke:#FFFFFF;stroke-width:1;stroke-alignment:center;}
	.st4{font-family:'ArialMT';}
	.st5{font-size:72px;}
</style>
<!--B20933-->
<g id="Hintergrund">
</g>
<g id="Hilfslinien_anzeigen" class="st0">
</g>
<g id="Vordergrund">
	<path class="st1" d="M232.8,46.6c1.9,0,6.1-0.3,9.4,3.1c3.3,3.4,3.5,7.6,3.5,9.7c0,5.8-4.8,10.1-10.9,10.1c-2.5,0-5.3-0.4-6.2-1
		c-0.3-0.2-0.4-0.4-0.4-0.7V47.8c0-0.4,0.2-0.6,0.5-0.7C229.3,46.8,231,46.7,232.8,46.6z M409.6,47.3l7.7,0.1
		c5.9,0.1,7.4,1.5,7.5,3.4l0.1,0.7c0.1,0.9,0.2,1,0.5,1c0.3,0,0.4-0.2,0.4-0.8c0-0.7,0.2-4.9,0.2-6.8c0-0.4,0-0.7-0.3-0.7
		c-0.3,0-0.8,0.2-1.7,0.3c-1,0.2-2.4,0.3-4.4,0.3h-23c-0.7,0-3.1-0.1-4.9-0.3c-1.7-0.1-2.3-0.7-2.7-0.7c-0.2,0-0.5,0.8-0.6,1.2
		c-0.1,0.5-1.4,5.8-1.4,6.4c0,0.4,0.1,0.6,0.3,0.6c0.2,0,0.4-0.1,0.6-0.6c0.2-0.4,0.4-0.9,1-1.9c1-1.5,2.5-1.9,6.3-2l9.1-0.1v26
		c0,5.9,0,10.8-0.3,13.3c-0.2,1.8-0.6,3.1-1.8,3.4c-0.6,0.1-1.3,0.2-1.8,0.2c-0.4,0-0.5,0.2-0.5,0.4c0,0.4,0.3,0.5,1,0.5
		c1.8,0,5.7-0.2,6-0.2c0.3,0,4.2,0.2,7.5,0.2c0.7,0,1-0.2,1-0.5c0-0.2-0.1-0.4-0.5-0.4c-0.6,0-1.9-0.1-2.8-0.2
		c-1.8-0.2-2.2-1.6-2.4-3.4c-0.3-2.6-0.3-7.4-0.3-13.3V47.3z M333.9,47.3l7.7,0.1c5.9,0.1,7.4,1.5,7.5,3.4l0.1,0.7
		c0.1,0.9,0.2,1,0.5,1c0.3,0,0.4-0.2,0.4-0.8c0-0.7,0.2-4.9,0.2-6.8c0-0.4,0-0.7-0.3-0.7c-0.3,0-0.8,0.2-1.7,0.3
		c-1,0.2-2.4,0.3-4.4,0.3h-23c-0.7,0-3.1-0.1-4.9-0.3c-1.7-0.1-2.3-0.7-2.7-0.7c-0.2,0-0.5,0.8-0.6,1.2c-0.1,0.5-1.4,5.8-1.4,6.4
		c0,0.4,0.1,0.6,0.3,0.6c0.2,0,0.4-0.1,0.6-0.6c0.2-0.4,0.4-0.9,1-1.9c1-1.5,2.5-1.9,6.3-2l9.1-0.1v26c0,5.9,0,10.8-0.3,13.3
		c-0.2,1.8-0.6,3.1-1.8,3.4c-0.6,0.1-1.3,0.2-1.8,0.2c-0.4,0-0.5,0.2-0.5,0.4c0,0.4,0.3,0.5,1,0.5c1.8,0,5.7-0.2,6-0.2
		c0.3,0,4.2,0.2,7.5,0.2c0.7,0,1-0.2,1-0.5c0-0.2-0.1-0.4-0.5-0.4c-0.6,0-1.9-0.1-2.8-0.2c-1.8-0.2-2.2-1.6-2.4-3.4
		c-0.3-2.6-0.3-7.4-0.3-13.3V47.3z M302.1,62.5c0-9.6,0-11.3,0.1-13.3c0.1-2.1,0.6-3.2,2.3-3.5c0.7-0.1,1.1-0.2,1.5-0.2
		c0.2,0,0.5-0.1,0.5-0.4c0-0.4-0.3-0.5-1-0.5c-1.8,0-5.7,0.2-6,0.2c-0.3,0-4.2-0.2-6.2-0.2c-0.7,0-1,0.1-1,0.5
		c0,0.2,0.2,0.4,0.5,0.4c0.4,0,1.2,0.1,1.9,0.2c1.4,0.3,2,1.4,2.1,3.4c0.1,2,0.1,3.7,0.1,13.3v10.8c0,5.9,0,10.8-0.3,13.3
		c-0.2,1.8-0.6,3.1-1.8,3.4c-0.6,0.1-1.3,0.2-1.8,0.2c-0.4,0-0.5,0.2-0.5,0.4c0,0.4,0.3,0.5,1,0.5c1.8,0,5.7-0.2,6-0.2
		c0.3,0,4.2,0.2,7.6,0.2c0.7,0,1-0.2,1-0.5c0-0.2-0.1-0.4-0.5-0.4c-0.6,0-1.9-0.1-2.8-0.2c-1.8-0.2-2.2-1.6-2.4-3.4
		c-0.3-2.6-0.3-7.4-0.3-13.3V62.5z M270.2,92c3.3,0,6.6-0.7,9.3-2.6c4.2-3,5.2-7.7,5.2-10.2c0-4.9-1.7-8.7-9-14.4l-1.7-1.4
		c-5.9-4.6-7.5-6.8-7.5-10.3c0-4.5,3.3-7.1,7.6-7.1c5.7,0,7.3,2.6,7.7,3.3c0.4,0.7,0.7,2.3,0.8,3.1c0.1,0.5,0.1,0.8,0.5,0.8
		c0.3,0,0.4-0.4,0.4-1.4c0-4.2,0.2-6.2,0.2-6.5c0-0.3-0.1-0.4-0.6-0.4c-0.5,0-1-0.1-2.1-0.3c-1.5-0.4-3.3-0.6-5.7-0.6
		c-7.8,0-12.7,4.5-12.7,11.1c0,4.2,1.5,8,8,13.3l2.8,2.3c5.3,4.4,7.1,6.8,7.1,11.1c0,3.9-2.9,8.2-8.8,8.2c-4.1,0-8.2-1.7-9.1-6.3
		c-0.2-0.9-0.2-1.7-0.2-2.3c0-0.5-0.1-0.7-0.4-0.7c-0.3,0-0.4,0.3-0.5,1c-0.1,1-0.3,3.4-0.3,6.5c0,1.7,0.1,1.9,0.9,2.3
		C264.4,91.5,267.3,92,270.2,92z M190.2,73.3c0,5.9,0,10.8-0.3,13.3c-0.2,1.8-0.6,3.1-1.8,3.4c-0.6,0.1-1.3,0.2-1.8,0.2
		c-0.4,0-0.5,0.2-0.5,0.4c0,0.4,0.3,0.5,1,0.5c0.9,0,2.3-0.1,3.6-0.1c1.3-0.1,2.3-0.1,2.5-0.1c0.9,0,2.4,0.1,4.8,0.2
		c2.4,0.1,5.8,0.2,10.4,0.2c2.4,0,2.9,0,3.3-1.6c0.3-1.3,0.8-5.5,0.8-6c0-0.4,0-0.9-0.4-0.9c-0.3,0-0.4,0.2-0.6,0.9
		c-0.4,2.5-1.2,3.7-2.8,4.4c-1.6,0.7-4.3,0.7-5.9,0.7c-6,0-6.9-0.8-7.1-5c-0.1-1.3,0-8.4,0-10.5v-5.4c0-0.2,0.1-0.4,0.4-0.4
		c1,0,7.1,0.1,8.8,0.3c2.4,0.2,2.9,1.3,3.2,2.2c0.2,0.8,0.2,1.4,0.2,2c0,0.3,0.1,0.6,0.4,0.6c0.4,0,0.4-0.7,0.4-1.2
		c0-0.4,0.1-2.7,0.2-3.9c0.2-2,0.5-3.1,0.5-3.4c0-0.4-0.1-0.5-0.3-0.5c-0.2,0-0.5,0.3-0.9,0.8c-0.6,0.6-1.4,0.7-2.9,0.9
		c-1.4,0.1-9,0.1-9.8,0.1c-0.3,0-0.4-0.2-0.4-0.6v-17c0-0.4,0.1-0.6,0.4-0.6c0.7,0,7.4,0.1,8.4,0.2c3.3,0.4,3.9,1.1,4.4,2.1
		c0.3,0.7,0.4,1.8,0.4,2.2c0,0.5,0.1,0.8,0.5,0.8c0.2,0,0.4-0.4,0.4-0.7c0.1-0.7,0.2-3.4,0.3-4.1c0.2-1.7,0.5-2.5,0.5-2.9
		c0-0.3-0.1-0.6-0.2-0.6c-0.3,0-0.6,0.2-0.9,0.3c-0.5,0.1-1.5,0.2-2.6,0.3c-1.4,0.1-13.6,0.1-14.1,0.1l-2.5-0.1
		c-1.4-0.1-3-0.1-4.4-0.1c-0.7,0-1,0.1-1,0.5c0,0.2,0.2,0.4,0.5,0.4c0.6,0,1.6,0.1,2.1,0.2c2,0.4,2.5,1.4,2.6,3.5
		c0.1,2,0.1,3.7,0.1,13.3V73.3z M147.7,52.1c-0.9-2.4-1.7-4.3-1.7-5.1c0-0.4,0.1-0.9,0.8-1.2c0.6-0.2,1.7-0.3,2.3-0.3
		c0.4,0,0.6-0.1,0.6-0.4c0-0.3-0.6-0.4-1.7-0.4c-2.3,0-5.1,0.2-5.7,0.2c-0.7,0-4.2-0.2-7.2-0.2c-1,0-1.6,0.1-1.6,0.4
		c0,0.2,0.1,0.4,0.5,0.4c0.4,0,1.4,0,2.3,0.2c2.1,0.6,3.1,1.3,4.4,4.7l15.1,37.7c1.2,2.9,1.5,3.8,2.2,3.8c0.6,0,0.9-1,2.6-4.7
		c1.4-3,4.2-9.6,7.9-18.6c3.1-7.6,6.2-14.9,6.9-16.6c1.7-4.2,2.6-5.2,3.4-5.8c1.2-0.7,2.5-0.7,2.9-0.7c0.5,0,0.7-0.1,0.7-0.4
		c0-0.3-0.4-0.4-1-0.4c-1.8,0-4.4,0.2-4.8,0.2c-0.7,0-3.6-0.2-6-0.2c-1,0-1.4,0.1-1.4,0.5c0,0.3,0.3,0.4,0.7,0.4
		c0.7,0,1.6,0,2.3,0.2c0.6,0.3,0.8,0.9,0.8,1.4c0,0.6-0.2,1.4-0.6,2.3c-1.4,4.4-9.6,25.9-13.1,34.1L147.7,52.1z M354,84.3
		c-1.1,3.1-2.3,5.4-5.2,5.8c-0.5,0.1-1.3,0.1-1.8,0.1c-0.3,0-0.6,0.1-0.6,0.4c0,0.4,0.4,0.5,1.2,0.5c2.9,0,6.3-0.2,6.9-0.2
		c0.7,0,3.3,0.2,4.8,0.2c0.6,0,0.9-0.1,0.9-0.5c0-0.2-0.2-0.4-0.6-0.4h-0.6c-1,0-2.3-0.6-2.3-1.8c0-1.1,0.3-2.6,0.9-4.1l3.7-10.9
		c0.1-0.3,0.3-0.5,0.6-0.5h13.2c0.3,0,0.4,0.1,0.6,0.4l5.7,15.1c0.4,1,0,1.5-0.4,1.7c-0.2,0.1-0.4,0.2-0.4,0.4
		c0,0.4,0.7,0.4,1.8,0.4c4.2,0.1,8.7,0.1,9.6,0.1c0.7,0,1.2-0.1,1.2-0.5c0-0.3-0.2-0.4-0.6-0.4c-0.6,0-1.5-0.1-2.5-0.4
		c-1.3-0.4-3.1-1.4-5.3-6.8c-3.7-9.3-13.4-34.7-14.3-37c-0.7-1.9-1-2.2-1.4-2.2c-0.4,0-0.6,0.4-1.3,2.4L354,84.3z M362.6,70.8
		c-0.2,0-0.3-0.1-0.2-0.4l5.4-16.6c0.3-0.9,0.6-0.9,0.9,0l5.8,16.6c0.1,0.2,0.1,0.4-0.2,0.4H362.6z M377.5,50.4
		c1.7,0,2.7-1.2,2.7-2.8c0-1.5-1.2-2.5-2.6-2.5c-1.9,0-2.6,1.5-2.6,2.6C374.9,48.9,375.7,50.4,377.5,50.4z M361.8,50.4
		c1.7,0,2.7-1.2,2.7-2.8c0-1.5-1.2-2.5-2.6-2.5c-1.9,0-2.6,1.5-2.6,2.6C359.2,48.9,359.9,50.4,361.8,50.4z M126.3,62.5
		c0-9.6,0-11.3,0.1-13.3c0.1-2.1,0.6-3.2,2.3-3.5c0.7-0.1,1.1-0.2,1.5-0.2c0.2,0,0.5-0.1,0.5-0.4c0-0.4-0.3-0.5-1-0.5
		c-1.8,0-5.7,0.2-6,0.2c-0.3,0-4.2-0.2-6.2-0.2c-0.7,0-1,0.1-1,0.5c0,0.2,0.2,0.4,0.5,0.4c0.4,0,1.2,0.1,1.9,0.2
		c1.4,0.3,2,1.4,2.1,3.4c0.1,2,0.1,3.7,0.1,13.3v10.8c0,5.9,0,10.8-0.3,13.3c-0.2,1.8-0.6,3.1-1.8,3.4c-0.6,0.1-1.3,0.2-1.8,0.2
		c-0.4,0-0.5,0.2-0.5,0.4c0,0.4,0.3,0.5,1,0.5c1.8,0,5.7-0.2,6-0.2c0.3,0,4.2,0.2,7.6,0.2c0.7,0,1-0.2,1-0.5c0-0.2-0.1-0.4-0.5-0.4
		c-0.6,0-1.9-0.1-2.8-0.2c-1.8-0.2-2.2-1.6-2.4-3.4c-0.3-2.6-0.3-7.4-0.3-13.3V62.5z M70.5,53.3c2,2.2,8.9,10,16,17.6
		c6.5,7,15.3,16,16,16.6c3.3,3.3,4,3.9,4.5,3.9c0.4,0,0.6-0.3,0.6-4.4l0.1-36c0-3.7,0.2-5,2.3-5.5c0.7-0.2,1.2-0.2,1.5-0.2
		c0.4,0,0.7-0.2,0.7-0.4c0-0.4-0.4-0.4-1.1-0.4c-2.5,0-4.6,0.2-5.2,0.2c-0.7,0-3.6-0.2-6.4-0.2c-0.7,0-1.2,0.1-1.2,0.4
		c0,0.2,0.1,0.4,0.5,0.4c0.5,0,1.9,0.1,3,0.3c1.9,0.5,2.3,1.8,2.4,5.8l0.7,31.2c-2-2-8.7-9.5-14.7-16c-9.4-10.1-18.6-20-19.5-21.1
		c-0.6-0.6-1.7-2-2.2-2c-0.5,0-0.7,0.7-0.7,3.1l-0.1,35.2c0,5.6-0.3,7.4-1.8,7.8c-0.9,0.3-2,0.4-2.5,0.4c-0.3,0-0.5,0.1-0.5,0.4
		c0,0.4,0.4,0.5,1,0.5c2.8,0,5.4-0.2,5.9-0.2c0.6,0,3,0.2,6.5,0.2c0.7,0,1.1-0.1,1.1-0.5c0-0.2-0.2-0.4-0.5-0.4
		c-0.6,0-1.9-0.1-3.1-0.4c-1.7-0.5-2.3-2.1-2.4-7.1L70.5,53.3z M20.3,71.4c0,9,2.3,13.3,5.3,16.2c4.4,4.1,10.6,4.4,12.7,4.4
		c3.6,0,8.2-0.6,12.7-4.5c4.9-4.4,5.7-11.7,5.7-18.4v-6.6c0-9.6,0-11.3,0.1-13.3c0.1-2.1,0.6-3.1,2.3-3.5c0.7-0.1,1.1-0.2,1.5-0.2
		c0.2,0,0.5-0.1,0.5-0.4c0-0.4-0.3-0.5-1-0.5c-1.8,0-4.7,0.2-5.2,0.2c-0.4,0-3.7-0.2-6.5-0.2c-0.7,0-1,0.1-1,0.5
		c0,0.2,0.2,0.4,0.5,0.4c0.6,0,1.6,0.1,2.1,0.2c2,0.4,2.5,1.4,2.6,3.5c0.1,2,0.1,3.7,0.1,13.3v7.7c0,6.3-0.7,11.5-3.6,15.1
		c-2.2,2.6-5.9,4.4-9.6,4.4c-3.5,0-6.3-0.6-9.3-3.4c-2.6-2.5-4.6-6.3-4.6-15.2v-8.6c0-9.6,0-11.3,0.1-13.3c0.1-2.1,0.6-3.3,2.3-3.5
		c0.7-0.1,1.1-0.2,1.5-0.2c0.2,0,0.5-0.1,0.5-0.4c0-0.4-0.3-0.5-1-0.5c-1.8,0-5.5,0.2-6.1,0.2c-0.6,0-4.3-0.2-7.1-0.2
		c-0.7,0-1,0.1-1,0.5c0,0.2,0.2,0.4,0.5,0.4c0.6,0,1.6,0.1,2.1,0.2c2,0.4,2.5,1.4,2.6,3.5c0.1,2,0.1,3.7,0.1,13.3V71.4z M239.9,70.1
		c6.4-1.8,10.7-7.1,10.7-14.4c0-3.3-1.8-6.2-3.2-7.5c-1-0.9-3.8-3.6-11.7-3.6c-2.9,0-8.2,0.2-9.9,0.2c-0.7,0-4.2-0.2-6.9-0.2
		c-0.7,0-1,0.1-1,0.5c0,0.2,0.2,0.4,0.5,0.4c0.6,0,1.6,0.1,2.1,0.2c2,0.4,2.5,1.4,2.6,3.5c0.1,2,0.1,3.7,0.1,13.3v10.8
		c0,5.9,0,10.7-0.3,13.3c-0.2,1.8-0.6,3.1-1.8,3.4c-0.6,0.1-1.3,0.2-1.8,0.2c-0.4,0-0.5,0.2-0.5,0.4c0,0.4,0.3,0.5,1,0.5
		c1.8,0,5.7-0.2,5.8-0.2c0.3,0,4.2,0.2,7.6,0.2c0.7,0,1-0.2,1-0.5c0-0.2-0.1-0.4-0.5-0.4c-0.6,0-1.9-0.1-2.8-0.2
		c-1.8-0.2-2.2-1.6-2.4-3.4c-0.3-2.6-0.3-7.4-0.3-13.3v-1.5c0-0.3,0.1-0.5,0.4-0.5l6,0.1c0.4,0,0.7,0.1,0.8,0.4
		c0.9,2,2.2,5.5,4.1,9.3c2.5,5.2,3,7.5,5.6,8.9c1.6,0.9,3.3,1.1,6.7,1.1h3c1.1,0,1.5-0.1,1.5-0.5c0-0.2-0.2-0.4-0.6-0.4
		c-0.6,0-1.6-0.2-2.8-0.4c-1-0.2-3.9-0.9-5.7-4.2C245,81.4,242.4,75.3,239.9,70.1z M122.7,106.8c0-1.7-1.2-2.7-2.8-2.7
		c-1.5,0-2.5,1.2-2.5,2.6c0,1.9,1.5,2.6,2.6,2.6C121.2,109.4,122.7,108.6,122.7,106.8z M122.7,119.1c0-1.7-1.2-2.7-2.8-2.7
		c-1.5,0-2.5,1.2-2.5,2.6c0,1.9,1.5,2.6,2.6,2.6C121.2,121.7,122.7,120.9,122.7,119.1z M100.8,129.9c0,8.9,2.3,13.2,5.3,16.1
		c4.4,4.1,10.5,4.4,12.6,4.4c3.6,0,8.2-0.6,12.6-4.5c4.9-4.3,5.6-11.7,5.6-18.3V121c0-9.6,0-11.3,0.1-13.2c0.1-2.1,0.6-3.1,2.3-3.5
		c0.7-0.1,1.1-0.2,1.5-0.2c0.2,0,0.5-0.1,0.5-0.4c0-0.4-0.3-0.5-1-0.5c-1.8,0-4.7,0.2-5.1,0.2c-0.4,0-3.7-0.2-6.5-0.2
		c-0.7,0-1,0.1-1,0.5c0,0.2,0.2,0.4,0.5,0.4c0.6,0,1.6,0.1,2.1,0.2c2,0.4,2.5,1.4,2.6,3.5c0.1,2,0.1,3.7,0.1,13.2v7.7
		c0,6.3-0.7,11.5-3.6,15c-2.2,2.6-5.9,4.4-9.6,4.4c-3.5,0-6.3-0.6-9.3-3.4c-2.6-2.5-4.6-6.3-4.6-15.1V121c0-9.6,0-11.3,0.1-13.2
		c0.1-2.1,0.6-3.2,2.3-3.5c0.7-0.1,1.1-0.2,1.5-0.2c0.2,0,0.5-0.1,0.5-0.4c0-0.4-0.3-0.5-1-0.5c-1.8,0-5.5,0.2-6.1,0.2
		c-0.6,0-4.3-0.2-7-0.2c-0.7,0-1,0.1-1,0.5c0,0.2,0.2,0.4,0.5,0.4c0.6,0,1.6,0.1,2.1,0.2c2,0.4,2.5,1.4,2.6,3.5
		c0.1,2,0.1,3.7,0.1,13.2V129.9z M75,105.9l7.7,0.1c5.9,0.1,7.3,1.5,7.5,3.4l0.1,0.7c0.1,0.9,0.2,1,0.5,1c0.3,0,0.4-0.2,0.4-0.8
		c0-0.7,0.2-4.9,0.2-6.7c0-0.4,0-0.7-0.3-0.7c-0.3,0-0.8,0.2-1.7,0.3c-1,0.2-2.4,0.3-4.3,0.3h-23c-0.7,0-3.1-0.1-4.8-0.3
		c-1.7-0.1-2.3-0.7-2.7-0.7c-0.2,0-0.5,0.8-0.6,1.2c-0.1,0.5-1.3,5.8-1.3,6.4c0,0.4,0.1,0.6,0.3,0.6c0.2,0,0.4-0.1,0.6-0.6
		c0.2-0.4,0.4-0.9,1-1.9c1-1.5,2.5-1.9,6.2-2l9.1-0.1v25.9c0,5.9,0,10.7-0.3,13.3c-0.2,1.8-0.6,3.1-1.8,3.4
		c-0.6,0.1-1.3,0.2-1.8,0.2c-0.4,0-0.5,0.2-0.5,0.4c0,0.4,0.3,0.5,1,0.5c1.8,0,5.7-0.2,6-0.2c0.3,0,4.2,0.2,7.5,0.2
		c0.7,0,1-0.2,1-0.5c0-0.2-0.1-0.4-0.5-0.4c-0.6,0-1.9-0.1-2.8-0.2c-1.8-0.2-2.2-1.6-2.4-3.4c-0.3-2.6-0.3-7.4-0.3-13.3V105.9z
		 M346.9,111.9c2,2.2,8.9,9.9,16,17.6c6.5,7,15.3,16,16,16.6c3.3,3.2,4,3.9,4.5,3.9c0.4,0,0.6-0.3,0.6-4.4l0.1-35.9
		c0-3.7,0.2-5,2.3-5.5c0.7-0.2,1.2-0.2,1.5-0.2c0.4,0,0.7-0.2,0.7-0.4c0-0.4-0.4-0.4-1.1-0.4c-2.5,0-4.5,0.2-5.2,0.2
		c-0.7,0-3.6-0.2-6.4-0.2c-0.7,0-1.2,0.1-1.2,0.4c0,0.2,0.1,0.4,0.5,0.4c0.5,0,1.9,0.1,3,0.3c1.9,0.5,2.3,1.8,2.4,5.8l0.7,31.1
		c-2-2-8.6-9.5-14.7-16c-9.4-10.1-18.5-20-19.5-21c-0.6-0.6-1.7-2-2.2-2c-0.5,0-0.7,0.7-0.7,3.1l-0.1,35.1c0,5.6-0.3,7.4-1.8,7.8
		c-0.9,0.3-2,0.4-2.5,0.4c-0.3,0-0.5,0.1-0.5,0.4c0,0.4,0.4,0.5,1,0.5c2.8,0,5.3-0.2,5.9-0.2c0.6,0,3,0.2,6.5,0.2
		c0.7,0,1.1-0.1,1.1-0.5c0-0.2-0.2-0.4-0.5-0.4c-0.6,0-1.9-0.1-3.1-0.4c-1.7-0.5-2.3-2.1-2.4-7.1L346.9,111.9z M311.1,131.8
		c0,5.9,0,10.7-0.3,13.3c-0.2,1.8-0.6,3.1-1.8,3.4c-0.6,0.1-1.3,0.2-1.8,0.2c-0.4,0-0.5,0.2-0.5,0.4c0,0.4,0.3,0.5,1,0.5
		c0.9,0,2.3-0.1,3.6-0.1c1.3-0.1,2.3-0.1,2.5-0.1c0.9,0,2.4,0.1,4.8,0.2c2.4,0.1,5.8,0.2,10.4,0.2c2.4,0,2.9,0,3.3-1.6
		c0.3-1.3,0.8-5.5,0.8-5.9c0-0.4,0-0.9-0.4-0.9c-0.3,0-0.4,0.2-0.6,0.9c-0.4,2.5-1.2,3.7-2.8,4.4c-1.6,0.7-4.3,0.7-5.9,0.7
		c-6,0-6.9-0.8-7.1-5c-0.1-1.3,0-8.4,0-10.5v-5.4c0-0.2,0.1-0.4,0.4-0.4c1,0,7.1,0.1,8.8,0.3c2.4,0.2,2.9,1.3,3.2,2.1
		c0.2,0.8,0.2,1.4,0.2,2c0,0.3,0.1,0.6,0.4,0.6c0.4,0,0.4-0.7,0.4-1.2c0-0.4,0.1-2.7,0.2-3.9c0.2-2,0.5-3.1,0.5-3.4
		c0-0.4-0.1-0.5-0.3-0.5c-0.2,0-0.5,0.3-0.9,0.8c-0.6,0.6-1.4,0.7-2.9,0.9c-1.4,0.1-8.9,0.1-9.7,0.1c-0.3,0-0.4-0.2-0.4-0.6v-16.9
		c0-0.4,0.1-0.6,0.4-0.6c0.7,0,7.4,0.1,8.4,0.2c3.3,0.4,3.9,1.1,4.3,2.1c0.3,0.7,0.4,1.8,0.4,2.2c0,0.5,0.1,0.8,0.5,0.8
		c0.2,0,0.4-0.4,0.4-0.7c0.1-0.7,0.2-3.4,0.3-4c0.2-1.7,0.5-2.5,0.5-2.9c0-0.3-0.1-0.6-0.2-0.6c-0.3,0-0.6,0.2-0.9,0.3
		c-0.5,0.1-1.5,0.2-2.6,0.3c-1.4,0.1-13.6,0.1-14,0.1l-2.5-0.1c-1.3-0.1-3-0.1-4.4-0.1c-0.7,0-1,0.1-1,0.5c0,0.2,0.2,0.4,0.5,0.4
		c0.6,0,1.6,0.1,2.1,0.2c2,0.4,2.5,1.4,2.6,3.5c0.1,2,0.1,3.7,0.1,13.2V131.8z M291.9,144.3c0,1-0.4,1.7-1.2,2.1
		c-1.6,0.9-4.8,1.3-7,1.3c-5.6,0-11.2-1.8-16.1-6.6c-2.1-2.1-6.5-8.3-6.5-17c0-7.2,2.5-12.7,6.1-15.6c4.7-3.7,9.3-4,13.1-4
		c7.9,0,12.9,2.6,14.4,5c0.9,1.5,1.2,3.2,1.3,4c0.1,0.6,0.1,0.9,0.4,0.9c0.4,0,0.6-0.3,0.6-1.3c0-6.1,0.4-7.8,0.4-8.7
		c0-0.2-0.1-0.5-0.7-0.6c-1.5-0.1-3.7-0.3-5-0.6c-1.2-0.2-5.5-1-9.4-1c-4.7,0-10.8,0.4-16.3,3.9c-5.5,3.4-10.2,10.4-10.2,20.2
		c0,7.7,3.6,14.2,7.3,17.5c6.8,5.9,15.5,6.6,20.2,6.6c3.6,0,9.1-0.7,13-2.8c0.7-0.4,0.8-0.6,0.8-3.3v-6.9c0-2.6,0-4.4,0.1-6.4
		c0.1-2.1,0.6-3.2,2.3-3.5c0.7-0.1,1.1-0.2,1.5-0.2c0.2,0,0.5-0.1,0.5-0.4c0-0.4-0.3-0.5-1-0.5c-1.8,0-5.7,0.2-6,0.2
		c-0.3,0-4.2-0.2-6.9-0.2c-0.7,0-1,0.1-1,0.5c0,0.2,0.2,0.4,0.5,0.4c0.6,0,1.6,0.1,2.1,0.2c2.4,0.7,2.8,1.3,2.8,6.3V144.3z
		 M210.8,111.9c2,2.2,8.9,9.9,16,17.6c6.5,7,15.3,16,16,16.6c3.3,3.2,4,3.9,4.5,3.9c0.4,0,0.6-0.3,0.6-4.4l0.1-35.9
		c0-3.7,0.2-5,2.3-5.5c0.7-0.2,1.2-0.2,1.5-0.2c0.4,0,0.7-0.2,0.7-0.4c0-0.4-0.4-0.4-1.1-0.4c-2.5,0-4.5,0.2-5.2,0.2
		c-0.7,0-3.6-0.2-6.4-0.2c-0.7,0-1.2,0.1-1.2,0.4c0,0.2,0.1,0.4,0.5,0.4c0.5,0,1.9,0.1,3,0.3c1.9,0.5,2.3,1.8,2.4,5.8l0.7,31.1
		c-2-2-8.6-9.5-14.7-16c-9.4-10.1-18.5-20-19.5-21c-0.6-0.6-1.7-2-2.2-2c-0.5,0-0.7,0.7-0.7,3.1l-0.1,35.1c0,5.6-0.3,7.4-1.8,7.8
		c-0.9,0.3-2,0.4-2.5,0.4c-0.3,0-0.5,0.1-0.5,0.4c0,0.4,0.4,0.5,1,0.5c2.8,0,5.3-0.2,5.9-0.2c0.6,0,3,0.2,6.5,0.2
		c0.7,0,1.1-0.1,1.1-0.5c0-0.2-0.2-0.4-0.5-0.4c-0.6,0-1.9-0.1-3.1-0.4c-1.7-0.5-2.3-2.1-2.4-7.1L210.8,111.9z M192.2,121
		c0-9.6,0-11.3,0.1-13.2c0.1-2.1,0.6-3.2,2.3-3.5c0.7-0.1,1.1-0.2,1.5-0.2c0.2,0,0.5-0.1,0.5-0.4c0-0.4-0.3-0.5-1-0.5
		c-1.8,0-5.7,0.2-6,0.2c-0.3,0-4.2-0.2-6.2-0.2c-0.7,0-1,0.1-1,0.5c0,0.2,0.2,0.4,0.5,0.4c0.4,0,1.2,0.1,1.9,0.2
		c1.3,0.3,2,1.3,2.1,3.4c0.1,2,0.1,3.7,0.1,13.2v10.8c0,5.9,0,10.7-0.3,13.3c-0.2,1.8-0.6,3.1-1.8,3.4c-0.6,0.1-1.3,0.2-1.8,0.2
		c-0.4,0-0.5,0.2-0.5,0.4c0,0.4,0.3,0.5,1,0.5c1.8,0,5.7-0.2,6-0.2c0.3,0,4.2,0.2,7.5,0.2c0.7,0,1-0.2,1-0.5c0-0.2-0.1-0.4-0.5-0.4
		c-0.6,0-1.9-0.1-2.8-0.2c-1.8-0.2-2.2-1.6-2.4-3.4c-0.3-2.6-0.3-7.4-0.3-13.3V121z M151.3,131.8c0,5.9,0,10.7-0.3,13.3
		c-0.2,1.8-0.6,3.1-1.8,3.4c-0.6,0.1-1.3,0.2-1.8,0.2c-0.4,0-0.5,0.2-0.5,0.4c0,0.4,0.3,0.5,1,0.5c0.9,0,2.3-0.1,3.6-0.1
		c1.3-0.1,2.3-0.1,2.5-0.1c0.2,0,2,0.1,3.7,0.2c1.8,0.1,3.7,0.2,4.4,0.2c10.5,0,15.6-6.8,15.6-13.4c0-7.2-6.1-11.5-10.6-12.9
		c2.9-3,5.8-6,5.8-11c0-3.1-2.2-9.2-12.3-9.2c-2.8,0-5.2,0.2-6.7,0.2c-0.3,0-4.2-0.2-6.9-0.2c-0.7,0-1,0.1-1,0.5
		c0,0.2,0.2,0.4,0.5,0.4c0.6,0,1.6,0.1,2.1,0.2c2,0.4,2.5,1.4,2.6,3.5c0.1,2,0.1,3.7,0.1,13.2V131.8z M156.2,105.9
		c0-0.4,0.2-0.6,0.7-0.7c1-0.2,2.3-0.3,2.9-0.3c6,0,8.3,5.5,8.3,10.5c0,2.5-0.9,4.7-2.2,6.2c-1.3,1.5-2.1,1.6-5.6,1.6
		c-2.3,0-3.4-0.2-3.7-0.2c-0.3-0.1-0.4-0.2-0.4-0.7V105.9z M156.2,125.3c0-0.3,0.1-0.4,0.4-0.4c0.9,0,4,0,4.8,0.1
		c1.5,0.2,3,0.4,5.1,1.8c4.7,3.2,5.9,8.6,5.9,12.3c0,6.9-5.3,8.7-8.6,8.7c-1.1,0-3.7-0.1-5.4-0.9c-1.9-0.9-1.9-1.8-2.1-4.8
		c-0.1-0.9-0.1-8.5-0.1-13.2V125.3z M127.6,23.4c0,2.9,0,5.4-0.2,6.6c-0.1,0.9-0.3,1.6-0.9,1.7c-0.3,0.1-0.6,0.1-0.9,0.1
		c-0.2,0-0.2,0.1-0.2,0.2c0,0.2,0.2,0.2,0.5,0.2c0.5,0,1.2-0.1,1.8-0.1c0.6,0,1.2,0,1.2,0c0.5,0,1.2,0,2.4,0.1
		c1.2,0,2.9,0.1,5.2,0.1c1.2,0,1.4,0,1.7-0.8c0.2-0.6,0.4-2.7,0.4-3c0-0.2,0-0.5-0.2-0.5c-0.2,0-0.2,0.1-0.3,0.5
		c-0.2,1.3-0.6,1.9-1.4,2.2c-0.8,0.3-2.1,0.3-2.9,0.3c-3,0-3.5-0.4-3.6-2.5c0-0.6,0-4.2,0-5.2v-2.7c0-0.1,0.1-0.2,0.2-0.2
		c0.5,0,3.6,0.1,4.4,0.2c1.2,0.1,1.5,0.6,1.6,1.1c0.1,0.4,0.1,0.7,0.1,1c0,0.2,0.1,0.3,0.2,0.3c0.2,0,0.2-0.3,0.2-0.6
		c0-0.2,0.1-1.3,0.1-2c0.1-1,0.2-1.5,0.2-1.7c0-0.2-0.1-0.2-0.2-0.2c-0.1,0-0.2,0.2-0.5,0.4c-0.3,0.3-0.7,0.4-1.4,0.4
		c-0.7,0.1-4.5,0.1-4.9,0.1c-0.2,0-0.2-0.1-0.2-0.3v-8.5c0-0.2,0.1-0.3,0.2-0.3c0.3,0,3.7,0,4.2,0.1c1.7,0.2,2,0.6,2.2,1
		c0.2,0.4,0.2,0.9,0.2,1.1c0,0.2,0.1,0.4,0.2,0.4c0.1,0,0.2-0.2,0.2-0.3c0.1-0.4,0.1-1.7,0.2-2c0.1-0.9,0.2-1.2,0.2-1.4
		c0-0.2,0-0.3-0.1-0.3c-0.2,0-0.3,0.1-0.4,0.2c-0.2,0.1-0.7,0.1-1.3,0.2c-0.7,0-6.8,0-7,0l-1.3-0.1c-0.7,0-1.5,0-2.2,0
		c-0.3,0-0.5,0.1-0.5,0.2c0,0.1,0.1,0.2,0.2,0.2c0.3,0,0.8,0,1,0.1c1,0.2,1.3,0.7,1.3,1.7c0.1,1,0.1,1.8,0.1,6.6V23.4z M91.2,23.4
		c0,2.9,0,5.4-0.2,6.6c-0.1,0.9-0.3,1.6-0.9,1.7c-0.3,0.1-0.6,0.1-0.9,0.1C89,31.8,89,31.9,89,32c0,0.2,0.2,0.2,0.5,0.2
		c0.5,0,1.2-0.1,1.8-0.1c0.6,0,1.2,0,1.2,0c0.5,0,1.2,0,2.4,0.1c1.2,0,2.9,0.1,5.2,0.1c1.2,0,1.4,0,1.7-0.8c0.2-0.6,0.4-2.7,0.4-3
		c0-0.2,0-0.5-0.2-0.5c-0.2,0-0.2,0.1-0.3,0.5c-0.2,1.3-0.6,1.9-1.4,2.2c-0.8,0.3-2.1,0.3-2.9,0.3c-3,0-3.5-0.4-3.6-2.5
		c0-0.6,0-4.2,0-5.2v-2.7c0-0.1,0.1-0.2,0.2-0.2c0.5,0,3.6,0.1,4.4,0.2c1.2,0.1,1.5,0.6,1.6,1.1c0.1,0.4,0.1,0.7,0.1,1
		c0,0.2,0.1,0.3,0.2,0.3c0.2,0,0.2-0.3,0.2-0.6c0-0.2,0.1-1.3,0.1-2c0.1-1,0.2-1.5,0.2-1.7c0-0.2-0.1-0.2-0.2-0.2
		c-0.1,0-0.2,0.2-0.5,0.4c-0.3,0.3-0.7,0.4-1.4,0.4c-0.7,0.1-4.5,0.1-4.9,0.1c-0.2,0-0.2-0.1-0.2-0.3v-8.5c0-0.2,0.1-0.3,0.2-0.3
		c0.3,0,3.7,0,4.2,0.1c1.7,0.2,2,0.6,2.2,1c0.2,0.4,0.2,0.9,0.2,1.1c0,0.2,0.1,0.4,0.2,0.4c0.1,0,0.2-0.2,0.2-0.3
		c0.1-0.4,0.1-1.7,0.2-2c0.1-0.9,0.2-1.2,0.2-1.4c0-0.2,0-0.3-0.1-0.3c-0.2,0-0.3,0.1-0.4,0.2c-0.2,0.1-0.7,0.1-1.3,0.2
		c-0.7,0-6.8,0-7,0l-1.3-0.1c-0.7,0-1.5,0-2.2,0c-0.3,0-0.5,0.1-0.5,0.2c0,0.1,0.1,0.2,0.2,0.2c0.3,0,0.8,0,1,0.1
		c1,0.2,1.3,0.7,1.3,1.7c0.1,1,0.1,1.8,0.1,6.6V23.4z M108.6,23.4c0,2.9,0,5.4-0.2,6.6c-0.1,0.9-0.3,1.6-0.9,1.7
		c-0.3,0.1-0.6,0.1-0.9,0.1c-0.2,0-0.2,0.1-0.2,0.2c0,0.2,0.2,0.2,0.5,0.2c0.5,0,1.2-0.1,1.8-0.1c0.6,0,1.2,0,1.2,0
		c0.1,0,1,0,1.9,0.1c0.9,0,1.9,0.1,2.2,0.1c5.2,0,7.8-3.4,7.8-6.7c0-3.6-3-5.8-5.3-6.5c1.4-1.5,2.9-3,2.9-5.5c0-1.5-1.1-4.6-6.1-4.6
		c-1.4,0-2.6,0.1-3.3,0.1c-0.2,0-2.1-0.1-3.5-0.1c-0.3,0-0.5,0.1-0.5,0.2c0,0.1,0.1,0.2,0.2,0.2c0.3,0,0.8,0,1,0.1
		c1,0.2,1.3,0.7,1.3,1.7c0.1,1,0.1,1.8,0.1,6.6V23.4z M111.1,10.4c0-0.2,0.1-0.3,0.4-0.3c0.5-0.1,1.1-0.2,1.5-0.2
		c3,0,4.1,2.7,4.1,5.3c0,1.3-0.5,2.4-1.1,3.1c-0.6,0.7-1.1,0.8-2.8,0.8c-1.1,0-1.7-0.1-1.9-0.1c-0.2-0.1-0.2-0.1-0.2-0.3V10.4z
		 M111.1,20.2c0-0.2,0.1-0.2,0.2-0.2c0.5,0,2,0,2.4,0.1c0.7,0.1,1.5,0.2,2.5,0.9c2.4,1.6,3,4.3,3,6.1c0,3.5-2.7,4.4-4.3,4.4
		c-0.6,0-1.9-0.1-2.7-0.5c-0.9-0.5-0.9-0.9-1-2.4c0-0.5,0-4.3,0-6.6V20.2z M181.9,18c0-4.8,0-5.6,0.1-6.6c0.1-1.1,0.3-1.6,1.1-1.7
		c0.4-0.1,0.6-0.1,0.8-0.1c0.1,0,0.2-0.1,0.2-0.2c0-0.2-0.2-0.2-0.5-0.2c-0.9,0-2.8,0.1-3,0.1c-0.2,0-2.1-0.1-3.5-0.1
		c-0.3,0-0.5,0.1-0.5,0.2c0,0.1,0.1,0.2,0.2,0.2c0.3,0,0.8,0,1,0.1c1,0.2,1.3,0.7,1.3,1.7c0.1,1,0.1,1.8,0.1,6.6v0.6
		c0,0.2-0.1,0.2-0.2,0.2h-13c-0.1,0-0.2,0-0.2-0.2V18c0-4.8,0-5.6,0.1-6.6c0.1-1.1,0.3-1.6,1.1-1.7c0.4-0.1,0.6-0.1,0.8-0.1
		c0.1,0,0.2-0.1,0.2-0.2c0-0.2-0.2-0.2-0.5-0.2c-0.9,0-2.8,0.1-3,0.1c-0.2,0-2.1-0.1-3.5-0.1c-0.3,0-0.5,0.1-0.5,0.2
		c0,0.1,0.1,0.2,0.2,0.2c0.3,0,0.8,0,1,0.1c1,0.2,1.3,0.7,1.3,1.7c0.1,1,0.1,1.8,0.1,6.6v5.4c0,2.9,0,5.4-0.2,6.6
		c-0.1,0.9-0.3,1.6-0.9,1.7c-0.3,0.1-0.6,0.1-0.9,0.1c-0.2,0-0.2,0.1-0.2,0.2c0,0.2,0.2,0.2,0.5,0.2c0.9,0,2.8-0.1,3-0.1
		c0.2,0,2.1,0.1,3.8,0.1c0.3,0,0.5-0.1,0.5-0.2c0-0.1-0.1-0.2-0.2-0.2c-0.3,0-0.9-0.1-1.4-0.1c-0.9-0.1-1.1-0.8-1.2-1.7
		c-0.2-1.3-0.2-3.7-0.2-6.6v-3.2c0-0.2,0.1-0.2,0.2-0.2h13c0.1,0,0.2,0.1,0.2,0.2v3.2c0,2.9,0,5.4-0.2,6.6c-0.1,0.9-0.3,1.6-0.9,1.7
		c-0.3,0.1-0.6,0.1-0.9,0.1c-0.2,0-0.2,0.1-0.2,0.2c0,0.2,0.2,0.2,0.5,0.2c0.9,0,2.8-0.1,3-0.1c0.2,0,2.1,0.1,3.8,0.1
		c0.3,0,0.5-0.1,0.5-0.2c0-0.1-0.1-0.2-0.2-0.2c-0.3,0-0.9-0.1-1.4-0.1c-0.9-0.1-1.1-0.8-1.2-1.7c-0.2-1.3-0.2-3.7-0.2-6.6V18z
		 M220,21.8c3.2-0.9,5.4-3.5,5.4-7.2c0-1.7-0.9-3.1-1.6-3.7c-0.5-0.5-1.9-1.8-5.8-1.8c-1.4,0-4.1,0.1-4.9,0.1
		c-0.4,0-2.1-0.1-3.5-0.1c-0.3,0-0.5,0.1-0.5,0.2c0,0.1,0.1,0.2,0.2,0.2c0.3,0,0.8,0,1,0.1c1,0.2,1.3,0.7,1.3,1.7
		c0.1,1,0.1,1.8,0.1,6.6v5.4c0,2.9,0,5.4-0.2,6.6c-0.1,0.9-0.3,1.6-0.9,1.7c-0.3,0.1-0.6,0.1-0.9,0.1c-0.2,0-0.2,0.1-0.2,0.2
		c0,0.2,0.2,0.2,0.5,0.2c0.9,0,2.8-0.1,2.9-0.1c0.2,0,2.1,0.1,3.8,0.1c0.3,0,0.5-0.1,0.5-0.2c0-0.1-0.1-0.2-0.2-0.2
		c-0.3,0-0.9-0.1-1.4-0.1c-0.9-0.1-1.1-0.8-1.2-1.7c-0.2-1.3-0.2-3.7-0.2-6.6v-0.7c0-0.2,0.1-0.2,0.2-0.2l3,0c0.2,0,0.3,0.1,0.4,0.2
		c0.5,1,1.1,2.7,2,4.6c1.3,2.6,1.5,3.7,2.8,4.4c0.8,0.4,1.6,0.5,3.3,0.5h1.5c0.6,0,0.7-0.1,0.7-0.2c0-0.1-0.1-0.2-0.3-0.2
		c-0.3,0-0.8-0.1-1.4-0.2c-0.5-0.1-1.9-0.4-2.8-2.1C222.5,27.4,221.2,24.4,220,21.8z M216.5,10.1c0.9,0,3-0.2,4.7,1.5
		c1.7,1.7,1.8,3.8,1.8,4.8c0,2.9-2.4,5.1-5.4,5.1c-1.3,0-2.7-0.2-3.1-0.5c-0.2-0.1-0.2-0.2-0.2-0.4v-10c0-0.2,0.1-0.3,0.2-0.4
		C214.7,10.2,215.5,10.1,216.5,10.1z M234.2,17.5c0-2.4,0-5.5,0-6.5c0-0.3,0.1-0.5,0.4-0.6c0.2-0.1,1.4-0.2,2-0.2
		c3.6,0,7.1,0.4,10,3.5c1.3,1.3,2.9,3.8,2.9,7.7c0,2.8-0.9,5.8-2.5,7.3c-1.8,1.8-4.4,2.8-7.3,2.8c-3.6,0-4.8-0.6-5.2-1.2
		c-0.2-0.3-0.3-1.6-0.3-2.3c0-0.6-0.1-3.4-0.1-6.6V17.5z M231.6,23.4c0,2.9,0,5.4-0.2,6.6c-0.1,0.9-0.3,1.6-0.9,1.7
		c-0.3,0.1-0.6,0.1-0.9,0.1c-0.2,0-0.2,0.1-0.2,0.2c0,0.2,0.2,0.2,0.5,0.2c0.5,0,1.2-0.1,1.8-0.1c0.6,0,1.2,0,1.2,0
		c0.2,0,1.2,0.1,2.5,0.2c1.3,0.1,2.9,0.2,4.3,0.2c5.2,0,8-2.1,9.3-3.5c1.7-1.8,3.3-4.8,3.3-8.6c0-3.6-1.4-6.2-3-7.8
		c-3.6-3.8-9.3-3.5-12.3-3.5c-1.8,0-3.8,0.1-4.1,0.1c-0.2,0-2.1-0.1-3.5-0.1c-0.3,0-0.5,0.1-0.5,0.2c0,0.1,0.1,0.2,0.2,0.2
		c0.3,0,0.8,0,1,0.1c1,0.2,1.3,0.7,1.3,1.7c0.1,1,0.1,1.8,0.1,6.6V23.4z M152.1,21.8c3.2-0.9,5.4-3.5,5.4-7.2c0-1.7-0.9-3.1-1.6-3.7
		c-0.5-0.5-1.9-1.8-5.8-1.8c-1.4,0-4.1,0.1-4.9,0.1c-0.4,0-2.1-0.1-3.5-0.1c-0.3,0-0.5,0.1-0.5,0.2c0,0.1,0.1,0.2,0.2,0.2
		c0.3,0,0.8,0,1,0.1c1,0.2,1.3,0.7,1.3,1.7c0.1,1,0.1,1.8,0.1,6.6v5.4c0,2.9,0,5.4-0.2,6.6c-0.1,0.9-0.3,1.6-0.9,1.7
		c-0.3,0.1-0.6,0.1-0.9,0.1c-0.2,0-0.2,0.1-0.2,0.2c0,0.2,0.2,0.2,0.5,0.2c0.9,0,2.8-0.1,2.9-0.1c0.2,0,2.1,0.1,3.8,0.1
		c0.3,0,0.5-0.1,0.5-0.2c0-0.1-0.1-0.2-0.2-0.2c-0.3,0-1-0.1-1.4-0.1c-0.9-0.1-1.1-0.8-1.2-1.7c-0.2-1.3-0.2-3.7-0.2-6.6v-0.7
		c0-0.2,0.1-0.2,0.2-0.2l3,0c0.2,0,0.3,0.1,0.4,0.2c0.5,1,1.1,2.7,2,4.6c1.3,2.6,1.5,3.7,2.8,4.4c0.8,0.4,1.6,0.5,3.3,0.5h1.5
		c0.6,0,0.7-0.1,0.7-0.2c0-0.1-0.1-0.2-0.3-0.2c-0.3,0-0.8-0.1-1.4-0.2c-0.5-0.1-1.9-0.4-2.8-2.1C154.6,27.4,153.3,24.4,152.1,21.8z
		 M148.6,10.1c0.9,0,3-0.2,4.7,1.5c1.7,1.7,1.8,3.8,1.8,4.8c0,2.9-2.4,5.1-5.4,5.1c-1.3,0-2.6-0.2-3.1-0.5c-0.2-0.1-0.2-0.2-0.2-0.4
		v-10c0-0.2,0.1-0.3,0.2-0.4C146.8,10.2,147.6,10.1,148.6,10.1z M193.5,22.1c-0.1,0-0.2-0.1-0.1-0.2l2.7-8.3c0.2-0.5,0.3-0.5,0.5,0
		l2.9,8.3c0,0.1,0,0.2-0.1,0.2H193.5z M189.2,28.9c-0.6,1.5-1.2,2.7-2.6,2.9c-0.2,0-0.7,0.1-0.9,0.1c-0.2,0-0.3,0.1-0.3,0.2
		c0,0.2,0.2,0.2,0.6,0.2c1.4,0,3.1-0.1,3.5-0.1c0.3,0,1.7,0.1,2.4,0.1c0.3,0,0.5-0.1,0.5-0.2c0-0.1-0.1-0.2-0.3-0.2h-0.3
		c-0.5,0-1.2-0.3-1.2-0.9c0-0.6,0.2-1.3,0.4-2.1l1.8-5.4c0.1-0.2,0.2-0.2,0.3-0.2h6.6c0.2,0,0.2,0.1,0.3,0.2l2.8,7.5
		c0.2,0.5,0,0.8-0.2,0.8c-0.1,0-0.2,0.1-0.2,0.2c0,0.2,0.3,0.2,0.9,0.2c2.1,0.1,4.4,0.1,4.8,0.1c0.3,0,0.6-0.1,0.6-0.2
		c0-0.2-0.1-0.2-0.3-0.2c-0.3,0-0.8,0-1.2-0.2c-0.6-0.2-1.5-0.7-2.6-3.4c-1.9-4.7-6.7-17.3-7.1-18.5c-0.4-0.9-0.5-1.1-0.7-1.1
		c-0.2,0-0.3,0.2-0.7,1.2L189.2,28.9z M287.8,22.1c-0.1,0-0.2-0.1-0.1-0.2l2.7-8.3c0.2-0.5,0.3-0.5,0.5,0l2.9,8.3
		c0,0.1,0,0.2-0.1,0.2H287.8z M286.2,32.3c0.3,0,0.5-0.1,0.5-0.2c0-0.1-0.1-0.2-0.3-0.2H286c-0.5,0-1.2-0.3-1.2-0.9
		c0-0.6,0.2-1.3,0.4-2.1l1.8-5.4c0.1-0.2,0.2-0.2,0.3-0.2h6.6c0.2,0,0.2,0.1,0.3,0.2l2.8,7.5c0.2,0.5,0,0.8-0.2,0.8
		c-0.1,0-0.2,0.1-0.2,0.2c0,0.2,0.3,0.2,0.9,0.2c2.1,0.1,4.3,0.1,4.8,0.1c0.3,0,0.6-0.1,0.6-0.2c0-0.2-0.1-0.2-0.3-0.2
		c-0.3,0-0.8,0-1.2-0.2c-0.6-0.2-1.5-0.7-2.6-3.4c-1.9-4.7-6.7-17.3-7.1-18.5c-0.4-0.9-0.5-1.1-0.7-1.1c-0.2,0-0.3,0.2-0.7,1.2
		l-7,19c-0.5,1.3-1,2.3-1.9,2.7c-0.8-0.3-1.6-0.9-2.6-2c-2.3-2.6-7.1-8.7-8.2-10.3c0.6-0.8,6-6,6.8-6.7c1.4-1.3,2.1-2.1,3.3-2.6
		c0.6-0.3,1.3-0.4,1.7-0.4c0.2,0,0.3-0.1,0.3-0.2s-0.1-0.2-0.5-0.2c-0.8,0-2.8,0.1-2.9,0.1c-0.7,0-1.7-0.1-2.3-0.1
		c-0.2,0-0.4,0.1-0.4,0.2c0,0.1,0.1,0.2,0.3,0.2c0.2,0.1,0.4,0.3,0.4,0.6c0,0.5-0.8,1.3-1.7,2.2c-1.1,1.2-6.6,6.8-7.2,7.4l-0.1-1.8
		c0-4.8,0-5.6,0.1-6.6c0.1-1.1,0.3-1.6,1.1-1.7c0.4-0.1,0.6-0.1,0.8-0.1c0.1,0,0.2-0.1,0.2-0.2c0-0.2-0.2-0.2-0.5-0.2
		c-0.9,0-2.7,0.1-3,0.1c-0.2,0-2-0.1-3.4-0.1c-0.3,0-0.5,0.1-0.5,0.2c0,0.1,0.1,0.2,0.2,0.2c0.3,0,0.8,0,1,0.1
		c1,0.2,1.3,0.7,1.3,1.7c0.1,1,0.1,1.8,0.1,6.6v5.4c0,2.9,0,5.4-0.2,6.6c-0.1,0.9-0.3,1.6-0.9,1.7c-0.3,0.1-0.6,0.1-0.9,0.1
		c-0.2,0-0.2,0.1-0.2,0.2c0,0.2,0.2,0.2,0.5,0.2c0.9,0,2.7-0.1,2.9-0.1c0.2,0,2,0.1,3.5,0.1c0.3,0,0.5-0.1,0.5-0.2
		c0-0.1-0.1-0.2-0.2-0.2c-0.3,0-0.8-0.1-1.2-0.1c-0.9-0.1-1.1-0.8-1.2-1.7c-0.2-1.3-0.2-3.7-0.2-6.6l0-3c0.7,1,3.5,4.7,5.4,7.1
		c1.6,2.1,2.8,3.5,4.2,4.2c0.6,0.3,0.8,0.5,2.3,0.5c0,0,2-0.1,3.1-0.1C284.4,32.2,285.4,32.3,286.2,32.3z M345.3,32.7
		c1.7,0,3.3-0.4,4.6-1.3c2.1-1.5,2.6-3.8,2.6-5.1c0-2.5-0.9-4.4-4.5-7.2l-0.9-0.7c-2.9-2.3-3.7-3.4-3.7-5.1c0-2.2,1.7-3.6,3.8-3.6
		c2.8,0,3.6,1.3,3.8,1.6c0.2,0.3,0.4,1.2,0.4,1.5c0,0.2,0.1,0.4,0.2,0.4c0.2,0,0.2-0.2,0.2-0.7c0-2.1,0.1-3.1,0.1-3.2
		c0-0.2-0.1-0.2-0.3-0.2c-0.2,0-0.5,0-1.1-0.2c-0.8-0.2-1.7-0.3-2.8-0.3c-3.9,0-6.3,2.2-6.3,5.5c0,2.1,0.7,4,4,6.6l1.4,1.1
		c2.6,2.2,3.5,3.4,3.5,5.5c0,2-1.4,4.1-4.4,4.1c-2.1,0-4.1-0.9-4.5-3.1c-0.1-0.4-0.1-0.9-0.1-1.1c0-0.2,0-0.3-0.2-0.3
		c-0.2,0-0.2,0.2-0.2,0.5c0,0.5-0.2,1.7-0.2,3.2c0,0.8,0,0.9,0.5,1.2C342.4,32.5,343.8,32.7,345.3,32.7z M329.7,18
		c0-4.8,0-5.6,0.1-6.6c0.1-1.1,0.3-1.6,1.2-1.7c0.4-0.1,0.8-0.1,1-0.1c0.1,0,0.2-0.1,0.2-0.2c0-0.2-0.2-0.2-0.5-0.2
		c-0.9,0-3.2,0.1-3.3,0.1c-0.2,0-2.1-0.1-3.5-0.1c-0.3,0-0.5,0.1-0.5,0.2c0,0.1,0.1,0.2,0.2,0.2c0.3,0,0.8,0,1,0.1
		c1,0.2,1.3,0.7,1.3,1.7c0.1,1,0.1,1.8,0.1,6.6v5.4c0,2.9,0,5.4-0.2,6.6c-0.1,0.9-0.3,1.6-0.9,1.7c-0.3,0.1-0.6,0.1-0.9,0.1
		c-0.2,0-0.2,0.1-0.2,0.2c0,0.2,0.2,0.2,0.5,0.2c0.5,0,1.1,0,1.7-0.1c0.6,0,1.1,0,1.3,0c0.9,0,1.8,0,3.1,0.1c1.3,0,2.9,0.1,5.1,0.1
		c1.6,0,1.7-0.1,1.9-0.8c0.2-0.9,0.5-2.7,0.5-3.1c0-0.3,0-0.5-0.2-0.5c-0.2,0-0.2,0.2-0.3,0.4c-0.1,0.6-0.4,1.3-0.8,1.8
		c-0.7,0.9-2.1,0.9-3.7,0.9c-2.4,0-3.2-0.2-3.7-0.7c-0.6-0.6-0.7-2.5-0.7-7V18z M314.5,21.8c3.2-0.9,5.4-3.5,5.4-7.2
		c0-1.7-0.9-3.1-1.6-3.7c-0.5-0.5-1.9-1.8-5.8-1.8c-1.4,0-4.1,0.1-4.9,0.1c-0.4,0-2.1-0.1-3.5-0.1c-0.3,0-0.5,0.1-0.5,0.2
		c0,0.1,0.1,0.2,0.2,0.2c0.3,0,0.8,0,1,0.1c1,0.2,1.3,0.7,1.3,1.7c0.1,1,0.1,1.8,0.1,6.6v5.4c0,2.9,0,5.4-0.2,6.6
		c-0.1,0.9-0.3,1.6-0.9,1.7c-0.3,0.1-0.6,0.1-0.9,0.1c-0.2,0-0.2,0.1-0.2,0.2c0,0.2,0.2,0.2,0.5,0.2c0.9,0,2.8-0.1,2.9-0.1
		c0.2,0,2.1,0.1,3.8,0.1c0.3,0,0.5-0.1,0.5-0.2c0-0.1-0.1-0.2-0.2-0.2c-0.3,0-1-0.1-1.4-0.1c-0.9-0.1-1.1-0.8-1.2-1.7
		c-0.2-1.3-0.2-3.7-0.2-6.6v-0.7c0-0.2,0.1-0.2,0.2-0.2l3,0c0.2,0,0.3,0.1,0.4,0.2c0.5,1,1.1,2.7,2,4.6c1.3,2.6,1.5,3.7,2.8,4.4
		c0.8,0.4,1.6,0.5,3.3,0.5h1.5c0.6,0,0.7-0.1,0.7-0.2c0-0.1-0.1-0.2-0.3-0.2c-0.3,0-0.8-0.1-1.4-0.2c-0.5-0.1-1.9-0.4-2.8-2.1
		C317.1,27.4,315.8,24.4,314.5,21.8z M311,10.1c0.9,0,3-0.2,4.7,1.5c1.7,1.7,1.8,3.8,1.8,4.8c0,2.9-2.4,5.1-5.4,5.1
		c-1.3,0-2.7-0.2-3.1-0.5c-0.2-0.1-0.2-0.2-0.2-0.4v-10c0-0.2,0.1-0.3,0.2-0.4C309.2,10.2,310.1,10.1,311,10.1z"/>
	<path class="st1" d="M546.6,68.4c0,0.5,0.1,0.8,0.3,1.1c-0.2,0.6-0.3,1.1-0.4,1.8c-0.1,1.3-0.1,2.1,0.3,3.4l0.8-1.6l0.1-2.5
		c0.7,0.7,1.6,1.3,1.9,2.6c0.3,1.1,0.2,2.6-0.4,4.1c-2.2-0.1-3.7-0.9-4.4-2.7C544.3,73,544.6,69.7,546.6,68.4z M516.7,68
		c1.7-1.3,4.7-1.3,6,0.5c-1.4,0.1-2.8,0.8-3.6,1.4l-0.8-1.7L516.7,68z M516.8,74.2c-1.6-1.3-2-3.2-1.1-5l1.3,0.4l1.3,1
		C517.4,71.5,516.9,72.7,516.8,74.2z M525.7,21.8c0.9,1.3,1.6,2.8,2.2,4.6c-1.4-0.8-2.7-1.4-3.9-1.8L525.7,21.8z M517.8,18.1
		c2.7,0.2,4.6,0.8,6.1,1.8l0.2,1.4c0,0-0.7,1.8-1.2,2.9c-0.8-0.2-1.6-0.4-2.5-0.5c-0.2-0.5-0.4-1-0.7-1.3c-0.7-0.7-1.2-1.1-2-1.5
		l0.2-1.4L517.8,18.1z M509.3,20.7c1.9-1.5,4.2-2.6,6.9-2.7c-0.2,1.1-0.7,2.9-1,3.4c0.1,0.1,0.8,1.3,1,2c-1.1,0-2,0.1-2.9,0.2
		C512.3,22.9,510.2,21.4,509.3,20.7z M505.3,25.6c0.8-1.4,1.8-2.8,3.1-4c0.7,0.3,1.1,0.7,1.8,1.2c0.5,0.4,0.8,0.7,1.2,1.2
		c-2,0.4-3.8,1.2-5.9,2.4c0-0.1,0-0.3-0.1-0.4L505.3,25.6z M538.9,22.6c0.4,0.3,0.6,0.6,0.8,1.1c-2.7,1.4-4.3,2.7-6.4,5.2
		c-0.1-1.9-0.4-3.9,0.5-6c0.4-0.2,0.8-0.2,1.4-0.3c0.7,0,2-0.2,2.4-0.3C538.1,22.1,538.5,22.3,538.9,22.6z M541.5,18
		c0.6,0,1.2-0.1,1.8,0c3.1,0.1,5.1,0.9,7.4,3c-2,0-3.7,0.1-5.2,0.5l-2.2-0.6L541.5,18z M536.4,19.6c1-0.7,2.2-1.2,3.4-1.5
		c0.5,0.4,1,1,1.3,1.3c0.7,0.7,1.1,1.2,1.1,2.2c0,0.3-0.1,0.6-0.2,0.9l-0.9,0.4c-0.4-0.6-0.8-0.9-1.5-1.3
		C539.2,21.3,537.2,20.1,536.4,19.6z M542.6,32.8c-1.3,0.5-2.6,1.1-3.7,1.9c-0.4-1.6-0.7-3.2-0.3-3.4c0.9-0.1,1.5,0,2.4,0.3
		C541.7,31.9,542.1,32.2,542.6,32.8z M548,31.7c-1.4,0.1-2.8,0.3-4,0.7c0-0.4,0-0.8,0-1.3c-0.1-1.3-0.2-2.1-0.5-3.4
		c0.9,0.5,1.4,0.9,2.2,1.6C546.7,30,547.3,30.7,548,31.7z M555.9,32.4c-1.4-0.5-2.9-0.7-4.6-0.8c0-0.6,0-0.9,0-1.6
		c0-1-0.1-1.5-0.2-2.5c0.8,0.2,1.2,0.3,1.8,0.8c0.9,0.5,1.3,1,1.8,1.8C555.4,31,555.6,31.5,555.9,32.4z M559.8,27.3
		c3.1,2.7,4.7,6.6,3.6,10.2c-1.5-1.6-3-2.8-4.6-3.8c-0.5-0.8-0.6-1.4-0.7-2.4C558.1,29.6,558.6,28.4,559.8,27.3z M553.2,24.1
		c0.8,0.2,1.7,0.4,2.5,0.8c1.2,0.4,2.2,1,3.2,1.8c-0.8,0.8-1.4,1.3-2.4,2c-0.4,0.3-0.7,0.5-1.2,0.8c-0.9-1.2-1.3-2-1.8-3.4
		C553.3,25.2,553.2,24.7,553.2,24.1z M542.7,24.7c2.8-1,6-1.3,9.2-0.8c-0.7,0.3-1.2,0.7-1.8,1.3c-0.6,0.6-0.9,1.1-1.3,1.9
		c-0.3,0.6-0.5,1-0.7,1.7l-1.4-1c-1-0.8-1.7-1.2-2.7-2C543.5,25.4,543.2,25.1,542.7,24.7z M533.3,33c0.5-1.8,1.4-3.5,2.8-4.6
		c1.5-1.3,3.4-2.4,5.4-3.3c0,0.9,0.1,1.5,0.4,2.5c0.2,0.6,0.3,0.9,0.5,1.5c0.3,0.8,0.4,1.3,0.6,2.2c-1.3-0.5-2.1-0.7-3.5-1
		c-1-0.2-1.5-0.3-2.5-0.4c-0.1,0.4-0.1,0.6,0,1c0.1,0.8,0.8,1.2,0.8,2c0,0.5,0,0.8-0.2,1.2L533.3,33z M533.5,40.8
		c-0.3-1.1-0.5-2.4-0.6-3.7l1.4,0.4c0-0.5,0-0.8-0.1-1.2c-0.1-0.9-0.1-1.4-0.3-2.2c1.1,0.3,1.7,0.4,2.8,0.7c0.7,0.1,1.1,0.2,1.7,0.3
		C536.6,36.4,534.9,38.3,533.5,40.8z M500.9,64c1.2,0.9,1.9,1.4,3.2,2.1c1.2,0.6,1.9,0.9,3.2,1.4c-1.2,0.4-2,0.6-3.3,0.6
		c-0.6,0-1,0-1.6-0.1C502.4,67.9,500.9,66.2,500.9,64z M561.4,50.6c1.2,2.6,1.4,5.5,0,8.1c-0.7-1.7-2.1-4-4-5.7L561.4,50.6z
		 M554.3,44.9c0.4,0.1,0.9,0.2,1.3,0.4c2.1,0.7,3.8,2.1,5,3.9c-0.2,0.4-0.5,0.7-0.8,1.1c-0.9,1-1.7,1.6-2.9,2.2
		c-0.2-0.1-0.4-0.3-0.6-0.4c0-1,0-1.9-0.3-2.8C555.5,47.5,555.1,46.4,554.3,44.9z M539.1,58.2c-1.4,2-2.4,4.3-3.2,6.8
		c0.2-2.8,0.7-5.4,1.5-7.8L539.1,58.2z M545.6,52.1c-2.3,1.2-4.4,3.1-6.1,5.5l-1.7-1.5c1-2.5,2.3-4.7,3.8-6.5L545.6,52.1z M554,51.1
		c-2.2-0.6-4.3-0.5-6.2,0.1c-0.6-0.7-2-1.4-2-1.4c-0.5-0.3-2.2-1-3.2-1.3c1.5-1.5,3.2-2.6,5-3.3c0.5,0.2,0.8,0.5,1.3,0.9
		c0.6,0.5,0.9,0.9,1.3,1.6c0.3-0.7,0.5-1,0.7-1.7c0.2-0.6,0.4-1,0.6-1.5c0.4,0,0.9,0,1.3,0.1c0.6,1.2,1.3,2.9,1.3,2.9l1.3,4.1
		C554.9,51.4,554.5,51.2,554,51.1z M539.9,48.7c-0.7,0.9-1.3,1.9-1.8,2.9c-0.5,1.1-1,2.2-1.4,3.3l-2.4-1.9l0.7-1.2l1.5-0.6l-0.8-1.2
		c0.7-0.4,1.1-0.7,1.9-0.9c0.7-0.2,1.1-0.5,1.8-0.4C539.5,48.5,539.7,48.6,539.9,48.7z M560.2,46l-0.5-0.4c-0.8-0.6-1.6-1.1-2.4-1.5
		c0-0.6-0.2-1.1-0.4-1.8c-0.3-0.7-0.4-1.1-0.9-1.8c-0.2,0.8-0.3,1.2-0.6,2l-0.3,0.8c-2.8-0.8-5.8-0.5-9,0.8c-2.6,1-4.5,2.6-6,4.4
		c-0.5-0.3-0.8-0.5-1.2-1c-0.6-0.6-0.8-1-1.2-1.7c0.9-0.3,1.4-0.5,2.3-0.6c0.7-0.1,1.1-0.1,1.8-0.1c-0.1-0.6-0.1-0.9-0.1-1.5
		c0-0.6-0.1-0.9-0.1-1.5c0.9,0,1.3,0,2.2,0.1c0.7,0.1,1.2,0.2,1.9,0.5c0.2-0.5,0.7-3.3,0.7-3.7c0.4,0.3,3.4,2.7,3.9,2.9
		c0-0.6,0-0.9,0.1-1.5c0.2-1.1,0.3-1.7,0.8-2.6c0.4,0.5,0.7,0.7,1,1.3c0.4,0.6,1.1,2.3,1.2,2.6c0.6-0.7,1-1,1.6-1.7
		c0.6-0.7,0.9-1,1.5-1.7c0.7,0.5,1.8,1.9,2.2,2.6C559.1,41.7,560,45.4,560.2,46z M564.5,41.9c0.4,0.8,0.7,1.6,1,2.4
		c1.3,3.6,1.6,6-0.7,9.8c-0.4-2.3-1-4.1-2.2-5.6c0-0.8,0.1-1.5,0.3-2.4C563.2,44.9,563.9,43.2,564.5,41.9z M558.9,36.1
		c2,1,3.6,2.5,4.7,4.4c-0.2,0.4-0.4,0.8-0.7,1.2c-0.6,0.8-1,1.2-1.8,1.8c0-0.7-0.3-1.4-0.5-2.1c-0.3-0.9-0.4-1-0.8-1.8
		C559.3,38.3,559.1,37.4,558.9,36.1z M550.8,34.3c1.7,0,3.6,0.2,5.6,0.8l0.6,0.2l0.8,0.7c-0.9,0.5-1.3,0.9-2,1.6
		c-0.8,0.7-1.1,1.2-1.7,2c-0.7-1.1-1.1-1.7-1.8-2.8C551.6,35.8,551.3,35.2,550.8,34.3z M533.5,49.9c0-0.4,0.1-0.8,0.1-1.1
		c0.4-3.1,3.5-8.1,6.8-10.6c0.5,0.1,0.8,0.2,1.4,0.4c0.8,0.3,1.2,0.5,1.9,1c0-0.7,0-1.1,0-1.8c0-0.6-0.1-1-0.2-1.5
		c0.8-0.4,1.7-0.8,2.6-1.1c0.4,0.2,0.7,0.4,1.2,0.7c0.7,0.5,1,0.8,1.5,1.4l1.1-2.9l0.4,0c0.1,1.3,0.1,2.1-0.1,3.4
		c-0.1,0.9-0.3,1.5-0.6,2.4l-3.7-2.7l-0.7,3.8c-1-0.2-1.5-0.3-2.5-0.5c-1-0.2-1.6-0.2-2.6-0.3c0,0.7,0,1.1,0.1,1.7
		c0.1,0.7,0.1,1,0.2,1.7c-0.9,0.5-1.4,0.7-2.4,1c-0.8,0.3-1.3,0.4-2.2,0.5c-0.2,0.4,0.3,0.6,0.9,1c0.4,0.3,0.5,0.6,0.8,1.1
		c0,0.3,0,0.5-0.2,0.6c-0.8,0.4-1.2,0.6-2,0.9L533.5,49.9z M533.4,58.1c-0.1-1.4-0.1-2.8-0.1-4.3c0.7,0.2,1.1,0.5,1.7,1
		c0.4,0.4,0.6,0.6,0.9,1.1c-0.3,0.5-0.5,0.7-0.8,1.1C534.4,57.5,534,57.8,533.4,58.1z M533.8,63c-0.2-1.5-0.3-2.9-0.4-4.4l1.9-0.2
		C534.7,60.4,534.3,62,533.8,63z M556.7,74.5c-1.6,2-3.3,3.7-4.6,4.7c1.5-2.3,2.2-3.8,2.8-6.6c0.3-1.2,0.4-2.3,0.5-3.4
		c0.6,0.5,1,1,1.2,1.8c0.3,0.8,0,1.3,0.1,2.2C556.7,73.7,556.7,74.1,556.7,74.5z M561.5,64.6c0,0.4-0.1,0.9-0.2,1.4
		c-0.4,2.2-1.6,4.5-3.1,6.6c-0.2-0.9-0.6-2.3-1.3-3.6c-0.5-0.9-1.1-1.3-1.6-1.6c0-0.4-0.1-0.8-0.1-1.2c1.1-0.8,1.9-1.2,3.3-1.5
		C559.7,64.4,560.4,64.4,561.5,64.6z M548.4,53c0.9-0.2,1.9-0.3,3-0.3c1.9,0.1,3.9,0.9,5.5,2.2c0.1,0.6,0.2,1,0,1.7
		c-0.3,0.9-0.4,1.6-1,2.5c-0.4-1.2-1-3.1-1.3-3.1c-0.4,0-2.7,0.8-3.5,0.9c0.1,0.4,0.2,0.8,0.3,1.3c0.5-0.2,2.1-0.7,2.7-0.9
		c0.3,0.8,1,3.2,1.1,4.1c0.6-0.3,0.6-0.3,1.3-0.4c0.4,0,1.1,0,1.4,0.1c-0.2,0.5-0.3,1.1-0.5,1.6c-0.4,0.9-0.8,1.3-1.5,2
		c-0.2,0.2-0.4,0.3-0.7,0.5l-0.1-0.4c-0.8-3-2.7-4.4-5.5-5c0.1-1.4,0.1-2.2-0.2-3.6C549.1,55,548.9,54.2,548.4,53z M537.9,64.4
		c0.5-1.5,1.1-3.1,2.1-4.5c1.8-2.9,4.1-5.4,7.1-6.5c0.3,1,1.2,3.6,1.2,3.6c0,0.5-0.1,1.9-0.1,2.7c-3-0.2-5.1,1.6-7.3,4
		c-0.4,0.4-0.7,0.9-1,1.3c-0.6,0.1-1,0-1.6-0.3C538.2,64.6,538.1,64.6,537.9,64.4z M538.1,70c-0.5-0.9-1-1.5-0.9-2.6
		c0.1-0.6,0.2-1.4,0.4-2.1c0.2,0.2,0.3,0.3,0.6,0.5c0.4,0.3,0.7,0.4,1.1,0.5C538.8,67.6,538.4,69,538.1,70z M508,27.5
		c1.9-1.1,3.7-1.8,5.1-1.8c-1.7,1.5-3.1,2.9-4.3,4.4c0-0.4-0.1-0.7-0.2-1.1C508.5,28.7,508.2,28.1,508,27.5z M502.1,32.5
		c1.1-1.4,2.5-2.7,4-3.8c0,0.2,0.1,0.5,0.2,0.8c0.1,0.4,0.8,1.6,1.2,2.3c-0.8,1.1-1.5,2.3-2.2,3.4c-0.6-0.6-1-1-1.7-1.6
		C503.3,33.4,502.5,32.9,502.1,32.5z M499.3,41.9c-0.4-2.5,0-5,1.5-7.5c0.1-0.2,0.3-0.4,0.4-0.7c0.2,0.5,0.4,0.9,0.8,1.5
		c0.4,0.5,1.6,1.2,2.3,1.7c-0.8,1.5-1.3,2.8-1.8,4.2L499.3,41.9z M501.3,47.4c-0.8-1.5-1.4-2.9-1.8-4.4c0.3-0.1,0.6-0.2,1-0.3
		c0.6-0.1,1-0.1,1.5-0.1C501.8,44.1,501.5,45.6,501.3,47.4z M513.5,68.3c-0.6,1.1-1,2.4-1,3.8c-0.9-0.8-1.6-1.9-2-3.3L513.5,68.3z
		 M517.9,64.7c-0.1,0-0.3,0.1-0.4,0.1c-1.1,0.5-2.1,1.2-2.8,2l-4.4,0.6c-0.3-1.9-0.1-4,0.6-5.8c1.6,0.2,2.5,0.4,4,1.1
		C516.1,63.4,516.9,63.8,517.9,64.7z M526.5,67c-0.5-0.6-1.1-1-1.7-1.4c-0.4-1.4-1-3-1.3-3.5c-0.4-0.7-0.8-1.1-1.2-1.5
		c-0.6,0.3-1,0.5-1.6,1.1c-0.4,0.4-1.2,1.1-1.5,1.5c-0.3-0.6-0.5-0.9-0.9-1.4c-0.8-1-1.3-1.5-2.4-2.2c-0.3,0.3-0.5,0.5-0.6,0.9
		c-0.1,0.3-0.1,0.5,0,0.8c-0.8-0.1-1.3-0.2-2-0.5c-0.7-0.3-1.1-0.6-1.5-1.1c0.4-0.5,0.8-0.9,1.3-1.2C520.5,53.2,526.7,60.2,526.5,67
		z M521.2,34.1c-0.7-0.1-1.5-0.1-2.3-0.2c-1,0-1.9,0.1-2.8,0.2l1.5-2.5l0.8-1c0.7,0.6,1.1,0.9,1.6,1.6
		C520.5,33,520.8,33.4,521.2,34.1z M530.8,33.5c0.9,2.3,1.1,4.8,0.5,7c-2.4-3.4-5.1-5.3-8.7-6.1l1.4-5.3c1.2,0.9,1.8,1.6,2.6,2.9
		c0.6,0.9,1.5,2.8,2.2,4.5c0.1-0.4,0.3-0.7,0.5-1.2C529.8,34.5,530.2,34,530.8,33.5z M525.6,27.9c2,0.9,3.5,2.4,4.5,4.2
		c-0.1,0.2-0.2,0.4-0.4,0.6c-0.3,0.3-0.4,0.5-0.7,0.8c-0.3-0.2-0.5-0.4-0.7-0.7c-0.6-0.7-1.7-3.1-2.1-3.8
		C525.9,28.5,525.7,28.2,525.6,27.9z M512.3,29.2c2.4-1.6,5.1-2.4,8.2-2.4c1.1,0,2.1,0.1,3,0.3l0,0.6c-0.2,1-0.3,1.6-0.8,2.5
		c-0.3,0.7-0.5,1-1,1.7c-0.4-0.3-3.8-2.9-4.3-2.9c-0.3,1-1.7,4.4-2.4,5.3l-0.3,0.1c-0.3-1-0.6-1.5-1.3-2.3c-0.6-0.6-1-0.9-1.7-1.3
		l0.3-0.8L512.3,29.2z M507.7,33.7c1-1.3,2.1-2.5,3.3-3.4c0.2,0.6,0.3,1.1,0.4,1.6l2,1.9l0.6,1c-1.5,0.5-3,1.3-4.2,2.3
		c-0.4-0.6-1-1.5-1.1-1.8C508.6,34.9,508.1,34.1,507.7,33.7L507.7,33.7z M503.8,44.8c0-4.1,0.9-6.9,3.1-10l0.6,0.2
		c0.1,0.6,0.2,1,0.5,1.6c0.3,0.5,0.5,0.8,0.9,1.2C506.6,39.7,504.8,42.3,503.8,44.8z M524.7,49.4c-0.5-0.3-1.1-0.5-1.7-0.7
		c-0.2-0.7-0.3-1.2-0.4-1.9c-0.1-0.8-0.1-1.2-0.1-2c0.5,0.2,0.7,0.4,1.1,0.7c0.3,0.2,0.5,0.4,0.8,0.6c0.6-0.3,1.1-0.3,1.8-0.3
		c0.5,0,0.8,0.1,1.3,0.4c-0.8,0.6-1.2,1-1.8,1.8C525.3,48.4,525,48.8,524.7,49.4z M528.3,52.9c-0.9-1.5-1.9-2.5-2.9-3.2
		c0.8-0.8,1.3-1.3,2.2-2.1c0.7-0.6,1.1-0.9,1.9-1.5c-0.1,1.4-0.2,2.2-0.5,3.5C528.8,51,528.7,51.8,528.3,52.9z M532.2,58.7
		c0.1,2.3,0.1,4.7,0.1,7.6c-0.4-3.1-0.9-5.6-1.5-7.7L532.2,58.7z M532,50.5c0,0.4,0,0.8,0,1.2c0,2,0,3.8,0.1,5.5l-2.1-0.8
		c-0.3-0.7-0.5-1.4-0.8-2c0.1-0.6,0.2-1,0.4-1.6c0.3-0.9,0.5-1.5,1-2.3L532,50.5z M525.9,37.3c2,1.2,3.5,2.9,4.6,5.1
		c-0.1,0.3-0.3,0.6-0.6,1c-0.2,0.2-0.3,0.4-0.6,0.5l-2.1-1.8c0.1-0.7,0-1.1-0.4-1.7c-0.3-0.4-0.6-0.6-1.1-0.8
		c-0.1-0.6-0.1-0.9,0-1.5C525.8,37.9,525.8,37.6,525.9,37.3z M515.3,38.1c-2.6-0.1-4.7,0.8-6.5,1.8c1.4-2.1,3.7-3.5,6.4-4.1
		c0.1,0.4,0.2,0.7,0.2,1.1C515.4,37.4,515.4,37.7,515.3,38.1z M519.1,38.9c-0.5-0.3-1-0.5-1.5-0.6c-0.4-0.1-0.8-0.1-1.1-0.2
		c0.1-0.4,0.1-0.8,0.1-1.3c0-0.5-0.1-0.8-0.2-1.2c0.6-0.1,1.2-0.1,1.8-0.1l1.1,1.1c0.2,0.7,0.2,1.1,0,1.8
		C519.2,38.6,519.1,38.8,519.1,38.9z M516.5,40.2c1.6-0.1,3.2,0.1,4.8,0.6c-0.3-0.4-0.7-0.8-1.1-1.2l0-1.5c0.1-0.5,0.2-0.8,0.3-1.4
		c0.1-0.5,0.1-0.8,0.2-1.1l0.2,0c0.5,0.1,0.9,0.2,1.4,0.3c0.3,0.7,0.9,2,1.2,2.3c0.3,0.3,0.4,0.5,0.7,0.8c0,0-0.7,1.2-0.8,1.7
		c-0.2,1.1-0.1,2.1,0.3,2.9l-2.1-1.5c-0.2,0.6-0.4,1.2-0.3,1.5c0.2,1.2,0.4,1.9,0.3,3.1c0,0.6-0.1,1-0.2,1.5c-2.1-0.3-4.2-0.1-6,0.6
		c-0.1-0.6-0.1-1.1,0-1.9c0.1-0.9,0.5-1.3,0.6-2.1c0.1-0.6,0-1,0.1-1.7C516.2,42.7,516.3,41.2,516.5,40.2z M509.2,42.7
		c1.7-1.2,3.6-2,5.7-2.3c-0.2,1.4-0.3,2.3-0.6,3.8l-0.3,1.8l-0.9-0.1c-0.5-0.3-0.8-0.6-1.4-0.9C510.7,44.2,510.1,43.6,509.2,42.7z
		 M504.8,48.7c0.8-2,2-3.8,3-4.8c0.1,0.8,0.3,1.4,0.5,2.3c0.3,1.1,0.5,1.7,0.9,2.7c-0.7-0.1-1-0.2-1.7-0.1c-0.6,0-0.9,0.3-1.5,0.2
		C505.5,49,505.1,48.9,504.8,48.7z M502.8,56.7c0.1-1.2,0.3-2,0.9-3.2c0-1.3,0.3-2.7,0.8-4l2,3.5l-0.9,2c-0.7,0.4-1.1,0.6-1.8,1.1
		C503.5,56.2,503.2,56.4,502.8,56.7z M504.1,63.2c-0.8-1.4-1.3-3-1.3-4.9c0.8,0.5,1.3,0.9,2,1.8c0.7,0.8,1,1.3,1.4,2.2
		c-0.3,0.2-0.5,0.3-0.9,0.5C504.9,63,504.5,63.1,504.1,63.2z M509.9,59.5c-1.1,2.5-1.6,5.4-1.4,7.7c-1.5-0.8-2.8-1.8-3.7-3
		c0.4-0.1,0.8-0.2,1.3-0.4c0.7-0.3,1.1-0.4,1.8-0.8c-0.1-1.1-0.3-1.7-0.8-2.6c-0.3-0.6-0.8-0.8-1-1.4c-0.2-0.4-0.2-0.7-0.2-1.1
		c0.6-0.1,1-0.1,1.6,0.1c0.5,0.2,0.7,0.4,1.2,0.6C509.1,58.8,509.5,59.1,509.9,59.5z M511.5,56.8c-0.2,0.2-0.3,0.4-0.5,0.6l-1.5-1.9
		l-1.5-0.6c0.2-0.6,0.7-1.5,1.1-1.9c-0.6-0.3-1.4-1.9-1.7-2.7c0.8,0.1,1.3,0.1,2.1,0.1c0.5-0.1,0.8-0.1,1.4-0.3l-1.4-5
		c1.3,0.4,2,0.7,3.1,1.4c0.9,0.6,1.8,0.8,2.2,1.8c0.1,0.3,0.2,0.5,0.2,0.7c-1.6,0.8-3,2-3.7,3.6c-0.1,0.7-0.1,1.1-0.1,1.9
		C511.2,55.4,511.3,56,511.5,56.8z M529.7,60.8c0.3,1.8,0.4,3.8,0.2,5.9c-0.8-1.9-1.7-3.9-2.7-5.7L529.7,60.8z M526.3,53.3
		c1.6,1.8,2.7,4.1,3.3,7c-0.5-0.4-1-0.7-1.7-0.9c-0.7-0.2-1.2-0.3-1.8-0.3l-0.5-0.7c0.2-0.7,0.4-1.3,0.5-2.1
		C526.3,55.2,526.4,54.4,526.3,53.3z M521.1,50.1c1.6,0.5,3,1.3,4.3,2.4c-0.2,0.7-0.3,1.5-0.4,2.2c-0.1,1-0.2,1.8-0.2,2.7
		c-1.4-1.7-3.1-3-5-3.5L521.1,50.1z M514,50.7c1.6-0.9,3.5-1.3,5.6-1l0.2,0c-0.5,0.8-0.8,1.3-1.5,2.1c-0.5,0.6-0.8,0.9-1.3,1.4
		c-0.6-0.5-0.9-0.8-1.5-1.3C514.9,51.4,514.5,51.1,514,50.7z M512.6,51.7c0.3-0.2,0.7-0.5,1-0.7c0.2,0.3,0.4,0.5,0.5,0.9
		c0.4,0.8,0.6,1.4,0.7,2.3c-0.8,0.4-1.5,0.9-2.2,1.4c-0.2-0.5-0.3-0.8-0.4-1.4C512.1,53.2,512.2,52.5,512.6,51.7z M544.8,62.7
		c1-0.6,2.2-0.9,3.3-0.9c-0.3,0.4-0.6,0.8-0.9,1.4c-0.2,0.4-0.3,0.6-0.4,1.1c-0.3-0.5-0.6-0.8-1.1-1.1
		C545.4,62.9,545.1,62.8,544.8,62.7z M548.7,61.8c0.3,0,0.5,0.1,0.8,0.1c1.5,0.4,2.6,1.6,3.2,3.2c-0.9,0.4-1.5,0.9-2.3,1.7
		c-0.3,0.3-0.5,0.5-0.7,0.8c-0.4-0.3-0.8-0.5-1.3-0.7c-0.3-0.1-0.6-0.1-0.9-0.2c0-1.2,0.2-2,0.6-3.3
		C548.3,62.8,548.4,62.3,548.7,61.8z M553.2,67.5c0.3,2.7-0.2,5.8-1.5,8c0.3-1.9,0.2-4-0.5-5.7c0.8-0.4,1.2-0.8,1.7-1.6
		C553.1,67.9,553.2,67.7,553.2,67.5z M539.7,70.5c0.2-2.2,1.2-4.2,2.6-5.8c0.7,0.2,1.3,0.5,2,1c0.5,0.4,0.8,0.7,1.2,1.1
		C543.1,67.2,540.8,68.6,539.7,70.5z M561.8,71c-4.5,7.7-10.4,11.4-13.3,11.4c0.5-0.8,0.7-2,0.7-2.6c-2.6,0-4.4-1.2-5.7-3.5
		c-1.1-1.8-0.8-5.3-0.8-5.3c-2.4-0.3-3.7,2.1-3.7,4.4v22.4c0,1.7,0.2,2.8,0.8,4c2.4,4.8,7.9,7.7,12.4,7.1c-2,2.2-4,3.7-7.3,4.1
		c-1.8,0.2-3,0.1-4.7-0.6c2.2,2,4.5,3.1,7.5,2.5c3.1-0.6,4.9-3.3,6.5-3.7c1-0.3,1.8-0.1,3,0.1c-1.4,0.2-2.4,0.9-3.1,1.9
		c-0.6,0.8-0.7,2.1-0.8,2.9c1,0.2,2.1,0.3,3.4-0.2c0.9-0.4,1.4-0.7,2.1-1.4c1.4,0.9,2.3,3.3,2.3,3.3c-1.3-0.6-2.8-0.6-4-0.2
		c-3.9,1.3-5.4,3.8-12.8,2.5c-3.2-0.6-4.2-2.9-6.8-3.3c0.9,0.5,1.4,1.3,1.8,2.4c0.3,0.8,0.3,1.3,0.2,2.2c4.2-1,6.8,1.4,9.6,1.6
		c3.7,0.2,4.2-3,10.1-2.9c1.8,0,4.5,1.3,5.3,3.4c-2-0.9-4.9-0.7-6.5-0.2c-2.4,0.7-3.9,1.5-5.6,3.4c1.8,0.7,2.9,0.9,4.8,0.8
		c1.6,0,2.5-0.2,4-0.8c-2.1,2-4.1,3.1-7.4,4.2c-2.2,0.7-3.6,0.5-5.9,0c0.7-0.4,1-1,1-1c-3.3-0.6-3.6-2.6-6.3-3.1
		c-0.7-0.1-1.1-0.2-1.9-0.2c2.7,5.1,8.9,8,13.8,6.9c2.4-0.5,5.4-1.5,7.8-4c-0.7,3.5-2,5.3-4.9,6.6c-3.8,1.7-6.8,2-10.8,0.5
		c1.7,1.5,3.8,2.2,6.4,2.7c1.8,0.3,2.8,0.4,4.6,0.2c-4.6,2.8-12,1.3-16.9-2.4c-3.5-2.6-5.4-5.2-6.9-9.5c0.5,4.6,1.6,9.7,6.2,12.6
		c2.2,1.4,4.3,2.3,6.3,2c-1.7,1.2-4.1,1.5-6.1,1.5c-3.9,0-7.6-3.7-9.2-8c0.4,4.8-1.5,8-4.9,8c-1.9,0-2.9-0.8-4.7-0.9
		c-1.1,0-2,0.2-3.1,0.7c0.5-1.2,0.8-2,1.7-2.9c2-1.8,5.8-1.8,7.2-4.9c0.9-2,0.8-3.3,0.5-5.6c-1.4,4-4,5.8-8.4,7.8
		c-2.4,1.1-3.6,3.5-4.2,5.5c-0.2-2.7-0.1-4.5,1.4-6.8c1.7-2.8,5.8-3.5,7.4-6.4c1.3-2.2,1.6-3.8,1.6-6.4c-0.9,3-2.2,5.2-3.8,6.2
		c-3.4,2.3-6.9,3.3-8.6,6.2c-1.3,2.3-1.4,4.1-1,6.8c-1.8-1.7-2.4-3.6-2.1-6c0.3-2.1,1.1-3.4,2.9-4.6c-2.5,0.3-4.2,1.7-5,4
		c-0.6,1.9-0.4,3.5,0.8,5.1c-4.2-1.1-3.9-7-1.3-9.9c4.6-5,12.7-4.6,9.3-13.6c-0.4,3.4-1,5.4-3.5,7.2c-4.1,2.9-10.3,2.6-11.5,9.3
		c-0.3-5.2,1.3-6.9,4.3-9.7c1.9-1.8,5.4-2.6,5.1-7.6c-1.2,2.8-2.8,3.9-5.1,4.9c-2.6,1.2-4.3,0.6-6.5,3.4c-0.1-2,0.6-3.9,2.5-5
		c1.8-1,3.6-0.8,5-2.8c0,0-1.5-0.6-3.7,0.3c2.1-2.6,3.6-2,5.7-3c1.3-0.6,1.8-1.2,2.7-2.1c-1.8-0.2-3.5-0.2-5.4,0.2
		c-2.2,0.5-4.5,2.4-4.5,2.4c1.3-3.7,6.6-6.9,11.7-8.4c7-2,9.8-2.7,11.1-5.1c0.9-1.7,1.1-2.2,1.1-6V73.5c0-2.5-4-1.8-5.2-0.6
		c-1.1,1.1-1.4,2.4-0.6,4.1c-5,0.1-6.4-3.9-6.4-3.9c0,0.4,0,0.9,0,1.4c-1.8-0.9-2.7-1.7-3.8-3.4c-0.7-1.1-0.9-1.8-1.2-3
		c-1.6,1.2-5.7,1.6-6.4,1.2c-1.7-1.2-2.7-4.4-3.1-7.6c-0.4-2.9-0.2-4.7,0.7-7.5c-2.4-4.3-2.9-9.2-2.9-14.2c0-4.2,2.6-9.5,6-12.9
		c1.4-7,9-11.2,14.5-11.2c5.2,0,9.6,3,12.1,8.6c2.4-5.5,8.1-8.6,13.9-8.6c5.4,0,9.2,2.1,12.3,6.5c2.5,0.5,4.1,1.1,5.9,3
		c2.4,2.5,4.1,4.8,4.2,9c0,1.2-0.5,1.8-1.1,2.7c2.1,2.9,3,5.1,3,8.7c0,3.7-0.3,5.6-2,8.6c0.2,0.3,0.3,0.6,0.4,0.9
		c0.1,0.5,0.2,0.9,0.1,1.4c-1.2,0.4-2.5,0.3-2.8,1.5C563.2,59.3,565.4,64.4,561.8,71z M519.1,126.5c2.9-2.8,3.7-6.2,2.5-10.1
		c-0.8-2.4-1.8-3.7-3.8-5.1c0.6-0.6,0.9-1,1.6-1.6c0.6-0.5,0.9-0.7,1.5-1.2l0.7,1.9c0.9,2.5,2.3,4,2.4,6.4
		C524.1,121.1,521.5,124.6,519.1,126.5z M523.5,140.5c1.2-0.3,1.9-0.6,2.8-1.3c1.4-1,2.1-2,2.6-3.6c0.2,2-0.1,3.8-1.9,4.8
		C525.8,141,524.8,140.9,523.5,140.5z"/>
	<rect x="593.3" y="55.3" class="st2" width="312.7" height="136.7"/>
	<text transform="matrix(1 0 0 1 593.333 106.8848)" class="st3 st4 st5">eScience</text>
</g>
<g id="SCAN">
</g>
</svg>
